<mxfile host="Electron" modified="2024-02-01T18:07:01.405Z" agent="Mozilla/5.0 (X11; Linux x86_64) AppleWebKit/537.36 (KHTML, like Gecko) draw.io/21.6.1 Chrome/112.0.5615.204 Electron/24.6.1 Safari/537.36" etag="KkHfTMWK0IqT8YY9kCPr" version="21.6.1" type="device">
  <diagram name="Page-1" id="GOtxmTl-x517z7Cm9fr0">
    <mxGraphModel dx="2440" dy="1416" grid="1" gridSize="10" guides="1" tooltips="1" connect="1" arrows="1" fold="1" page="1" pageScale="1" pageWidth="4681" pageHeight="3300" math="0" shadow="0">
      <root>
        <mxCell id="0" />
        <mxCell id="1" parent="0" />
        <mxCell id="MPshjHnfK2mcv_0NpmO8-30" value="&lt;font style=&quot;font-size: 21px;&quot;&gt;&lt;b&gt;Schema of the main storage structure. The timeline&lt;/b&gt;&lt;/font&gt;" style="text;html=1;strokeColor=none;fillColor=none;align=center;verticalAlign=middle;whiteSpace=wrap;rounded=0;" parent="1" vertex="1">
          <mxGeometry x="430" y="360" width="520" height="30" as="geometry" />
        </mxCell>
        <mxCell id="MPshjHnfK2mcv_0NpmO8-31" value="" style="swimlane;startSize=0;" parent="1" vertex="1">
          <mxGeometry x="130" y="290" width="1100" height="640" as="geometry" />
        </mxCell>
        <mxCell id="yXxu-ckIG8VWti2M3FYv-1" value="" style="triangle;whiteSpace=wrap;html=1;rotation=-180;dashed=1;fillColor=#d5e8d4;strokeColor=#82b366;" vertex="1" parent="MPshjHnfK2mcv_0NpmO8-31">
          <mxGeometry x="830" y="275" width="30" height="40" as="geometry" />
        </mxCell>
        <mxCell id="yXxu-ckIG8VWti2M3FYv-3" style="edgeStyle=orthogonalEdgeStyle;rounded=0;orthogonalLoop=1;jettySize=auto;html=1;exitX=0;exitY=0.5;exitDx=0;exitDy=0;entryX=0;entryY=0.75;entryDx=0;entryDy=0;dashed=1;fillColor=#d5e8d4;strokeColor=#82b366;endArrow=none;endFill=0;" edge="1" parent="MPshjHnfK2mcv_0NpmO8-31" source="MPshjHnfK2mcv_0NpmO8-17" target="yXxu-ckIG8VWti2M3FYv-1">
          <mxGeometry relative="1" as="geometry" />
        </mxCell>
        <mxCell id="MPshjHnfK2mcv_0NpmO8-17" value="&lt;h1&gt;&lt;font style=&quot;font-size: 12px;&quot;&gt;fn-return&lt;/font&gt;&lt;/h1&gt;&lt;p style=&quot;line-height: 60%;&quot;&gt;- coord&amp;nbsp; &amp;nbsp; &amp;nbsp; (ref)&lt;/p&gt;&lt;p style=&quot;line-height: 60%;&quot;&gt;- retVal&amp;nbsp; &amp;nbsp; &amp;nbsp; (ref)&lt;/p&gt;&lt;p style=&quot;line-height: 60%;&quot;&gt;- fnCallIdx (int)&lt;/p&gt;&lt;p style=&quot;line-height: 60%;&quot;&gt;- thisIdx&amp;nbsp; &amp;nbsp; &amp;nbsp;(int)&lt;/p&gt;" style="text;html=1;strokeColor=#82b366;fillColor=#d5e8d4;spacing=5;spacingTop=-20;whiteSpace=wrap;overflow=hidden;rounded=0;" parent="MPshjHnfK2mcv_0NpmO8-31" vertex="1">
          <mxGeometry x="940" y="190" width="130" height="140" as="geometry" />
        </mxCell>
        <mxCell id="yXxu-ckIG8VWti2M3FYv-4" style="edgeStyle=orthogonalEdgeStyle;rounded=0;orthogonalLoop=1;jettySize=auto;html=1;exitX=-0.014;exitY=0.427;exitDx=0;exitDy=0;entryX=0;entryY=0.25;entryDx=0;entryDy=0;dashed=1;endArrow=none;endFill=0;fillColor=#d5e8d4;strokeColor=#82b366;exitPerimeter=0;" edge="1" parent="MPshjHnfK2mcv_0NpmO8-31" source="yXxu-ckIG8VWti2M3FYv-2" target="yXxu-ckIG8VWti2M3FYv-1">
          <mxGeometry relative="1" as="geometry" />
        </mxCell>
        <mxCell id="yXxu-ckIG8VWti2M3FYv-2" value="&lt;h1&gt;&lt;font style=&quot;font-size: 12px;&quot;&gt;fn-unwind&lt;/font&gt;&lt;/h1&gt;&lt;p style=&quot;line-height: 60%;&quot;&gt;- coord&amp;nbsp; &amp;nbsp; &amp;nbsp; &amp;nbsp;(ref)&lt;/p&gt;&lt;p style=&quot;line-height: 60%;&quot;&gt;- throwable (ref)&lt;/p&gt;&lt;p style=&quot;line-height: 60%;&quot;&gt;- fnCallIdx&amp;nbsp; &amp;nbsp;(int)&lt;/p&gt;&lt;p style=&quot;line-height: 60%;&quot;&gt;- thisIdx&amp;nbsp; &amp;nbsp; &amp;nbsp; &amp;nbsp;(int)&lt;/p&gt;" style="text;html=1;strokeColor=#82b366;fillColor=#d5e8d4;spacing=5;spacingTop=-20;whiteSpace=wrap;overflow=hidden;rounded=0;" vertex="1" parent="MPshjHnfK2mcv_0NpmO8-31">
          <mxGeometry x="940" y="340" width="130" height="140" as="geometry" />
        </mxCell>
        <mxCell id="yXxu-ckIG8VWti2M3FYv-8" style="rounded=0;orthogonalLoop=1;jettySize=auto;html=1;exitX=0.978;exitY=0.333;exitDx=0;exitDy=0;entryX=0.5;entryY=0.594;entryDx=0;entryDy=0;entryPerimeter=0;endArrow=oval;endFill=1;exitPerimeter=0;dashed=1;fillColor=#d5e8d4;strokeColor=#82b366;" edge="1" parent="MPshjHnfK2mcv_0NpmO8-31" source="yXxu-ckIG8VWti2M3FYv-7" target="yXxu-ckIG8VWti2M3FYv-5">
          <mxGeometry relative="1" as="geometry" />
        </mxCell>
        <mxCell id="yXxu-ckIG8VWti2M3FYv-12" style="rounded=0;orthogonalLoop=1;jettySize=auto;html=1;exitX=0.984;exitY=0.338;exitDx=0;exitDy=0;entryX=0.483;entryY=0.663;entryDx=0;entryDy=0;entryPerimeter=0;endArrow=oval;endFill=1;exitPerimeter=0;fillColor=#d5e8d4;strokeColor=#82b366;dashed=1;" edge="1" parent="MPshjHnfK2mcv_0NpmO8-31" source="yXxu-ckIG8VWti2M3FYv-7" target="yXxu-ckIG8VWti2M3FYv-6">
          <mxGeometry relative="1" as="geometry" />
        </mxCell>
        <mxCell id="MPshjHnfK2mcv_0NpmO8-1" value="&lt;p&gt;fn-call&lt;/p&gt;" style="rounded=0;whiteSpace=wrap;html=1;horizontal=0;fillColor=#d5e8d4;strokeColor=#82b366;" parent="MPshjHnfK2mcv_0NpmO8-31" vertex="1">
          <mxGeometry x="335" y="220" width="40" height="80" as="geometry" />
        </mxCell>
        <mxCell id="MPshjHnfK2mcv_0NpmO8-2" value="&lt;p&gt;fn-end&lt;/p&gt;" style="rounded=0;whiteSpace=wrap;html=1;horizontal=0;fillColor=#d5e8d4;strokeColor=#82b366;" parent="MPshjHnfK2mcv_0NpmO8-31" vertex="1">
          <mxGeometry x="575" y="220" width="40" height="80" as="geometry" />
        </mxCell>
        <mxCell id="MPshjHnfK2mcv_0NpmO8-3" value="&lt;p&gt;expr-exec&lt;/p&gt;" style="rounded=0;whiteSpace=wrap;html=1;horizontal=0;fillColor=#f8cecc;strokeColor=#b85450;" parent="MPshjHnfK2mcv_0NpmO8-31" vertex="1">
          <mxGeometry x="455" y="220" width="40" height="80" as="geometry" />
        </mxCell>
        <mxCell id="MPshjHnfK2mcv_0NpmO8-4" value="&lt;p&gt;fn-call&lt;/p&gt;" style="rounded=0;whiteSpace=wrap;html=1;horizontal=0;fillColor=#d5e8d4;strokeColor=#82b366;" parent="MPshjHnfK2mcv_0NpmO8-31" vertex="1">
          <mxGeometry x="415" y="220" width="40" height="80" as="geometry" />
        </mxCell>
        <mxCell id="MPshjHnfK2mcv_0NpmO8-5" value="&lt;p&gt;expr-exec&lt;/p&gt;" style="rounded=0;whiteSpace=wrap;html=1;horizontal=0;fillColor=#f8cecc;strokeColor=#b85450;" parent="MPshjHnfK2mcv_0NpmO8-31" vertex="1">
          <mxGeometry x="495" y="220" width="40" height="80" as="geometry" />
        </mxCell>
        <mxCell id="MPshjHnfK2mcv_0NpmO8-6" value="&lt;p&gt;expr-exec&lt;/p&gt;" style="rounded=0;whiteSpace=wrap;html=1;horizontal=0;fillColor=#f8cecc;strokeColor=#b85450;" parent="MPshjHnfK2mcv_0NpmO8-31" vertex="1">
          <mxGeometry x="535" y="220" width="40" height="80" as="geometry" />
        </mxCell>
        <mxCell id="MPshjHnfK2mcv_0NpmO8-7" value="&lt;p&gt;expr-exec&lt;/p&gt;" style="rounded=0;whiteSpace=wrap;html=1;horizontal=0;fillColor=#f8cecc;strokeColor=#b85450;" parent="MPshjHnfK2mcv_0NpmO8-31" vertex="1">
          <mxGeometry x="615" y="220" width="40" height="80" as="geometry" />
        </mxCell>
        <mxCell id="MPshjHnfK2mcv_0NpmO8-8" value="&lt;p&gt;expr-exec&lt;/p&gt;" style="rounded=0;whiteSpace=wrap;html=1;horizontal=0;fillColor=#f8cecc;strokeColor=#b85450;" parent="MPshjHnfK2mcv_0NpmO8-31" vertex="1">
          <mxGeometry x="655" y="220" width="40" height="80" as="geometry" />
        </mxCell>
        <mxCell id="MPshjHnfK2mcv_0NpmO8-9" value="&lt;p&gt;fn-end&lt;/p&gt;" style="rounded=0;whiteSpace=wrap;html=1;horizontal=0;fillColor=#d5e8d4;strokeColor=#82b366;" parent="MPshjHnfK2mcv_0NpmO8-31" vertex="1">
          <mxGeometry x="735" y="220" width="40" height="80" as="geometry" />
        </mxCell>
        <mxCell id="MPshjHnfK2mcv_0NpmO8-10" value="..." style="text;html=1;strokeColor=none;fillColor=none;align=center;verticalAlign=middle;whiteSpace=wrap;rounded=0;" parent="MPshjHnfK2mcv_0NpmO8-31" vertex="1">
          <mxGeometry x="685" y="245" width="60" height="30" as="geometry" />
        </mxCell>
        <mxCell id="MPshjHnfK2mcv_0NpmO8-11" value="&lt;p&gt;expr-exec&lt;/p&gt;" style="rounded=0;whiteSpace=wrap;html=1;horizontal=0;fillColor=#f8cecc;strokeColor=#b85450;" parent="MPshjHnfK2mcv_0NpmO8-31" vertex="1">
          <mxGeometry x="375" y="220" width="40" height="80" as="geometry" />
        </mxCell>
        <mxCell id="MPshjHnfK2mcv_0NpmO8-15" value="A thread timeline" style="swimlane;whiteSpace=wrap;html=1;" parent="MPshjHnfK2mcv_0NpmO8-31" vertex="1">
          <mxGeometry x="295" y="180" width="510" height="200" as="geometry" />
        </mxCell>
        <mxCell id="yXxu-ckIG8VWti2M3FYv-7" value="Functions frames" style="text;html=1;strokeColor=none;fillColor=none;align=center;verticalAlign=middle;whiteSpace=wrap;rounded=0;" vertex="1" parent="MPshjHnfK2mcv_0NpmO8-15">
          <mxGeometry x="55" y="160" width="60" height="30" as="geometry" />
        </mxCell>
        <mxCell id="MPshjHnfK2mcv_0NpmO8-20" style="rounded=0;orthogonalLoop=1;jettySize=auto;html=1;endArrow=none;endFill=0;fillColor=#d5e8d4;strokeColor=#82b366;dashed=1;exitX=0.5;exitY=1;exitDx=0;exitDy=0;entryX=1;entryY=0.5;entryDx=0;entryDy=0;" parent="MPshjHnfK2mcv_0NpmO8-31" source="MPshjHnfK2mcv_0NpmO8-9" target="yXxu-ckIG8VWti2M3FYv-1" edge="1">
          <mxGeometry relative="1" as="geometry">
            <mxPoint x="690" y="310" as="sourcePoint" />
          </mxGeometry>
        </mxCell>
        <mxCell id="yXxu-ckIG8VWti2M3FYv-5" value="" style="shape=curlyBracket;whiteSpace=wrap;html=1;rounded=1;flipH=1;labelPosition=right;verticalLabelPosition=middle;align=left;verticalAlign=middle;rotation=90;" vertex="1" parent="MPshjHnfK2mcv_0NpmO8-31">
          <mxGeometry x="500" y="230" width="20" height="170" as="geometry" />
        </mxCell>
        <mxCell id="yXxu-ckIG8VWti2M3FYv-6" value="" style="shape=curlyBracket;whiteSpace=wrap;html=1;rounded=1;flipH=1;labelPosition=right;verticalLabelPosition=middle;align=left;verticalAlign=middle;rotation=90;" vertex="1" parent="MPshjHnfK2mcv_0NpmO8-31">
          <mxGeometry x="550" y="130" width="20" height="400" as="geometry" />
        </mxCell>
        <mxCell id="MPshjHnfK2mcv_0NpmO8-16" value="&lt;h1&gt;&lt;font style=&quot;font-size: 12px;&quot;&gt;fn-call&amp;nbsp;&lt;/font&gt;&lt;/h1&gt;&lt;p style=&quot;line-height: 60%;&quot;&gt;- fnName&amp;nbsp; &amp;nbsp; &amp;nbsp; &amp;nbsp; &amp;nbsp; &amp;nbsp; (String)&lt;/p&gt;&lt;p style=&quot;line-height: 60%;&quot;&gt;- fnNs&amp;nbsp; &amp;nbsp; &amp;nbsp; &amp;nbsp; &amp;nbsp; &amp;nbsp; &amp;nbsp; &amp;nbsp; &amp;nbsp;(String)&lt;/p&gt;&lt;p style=&quot;line-height: 60%;&quot;&gt;- formId&amp;nbsp; &amp;nbsp; &amp;nbsp; &amp;nbsp; &amp;nbsp; &amp;nbsp; &amp;nbsp; (int)&lt;/p&gt;&lt;p style=&quot;line-height: 60%;&quot;&gt;- fnArgs&amp;nbsp; &amp;nbsp; &amp;nbsp; &amp;nbsp; &amp;nbsp; &amp;nbsp; &amp;nbsp; (ref)&lt;/p&gt;&lt;p style=&quot;line-height: 60%;&quot;&gt;&lt;span style=&quot;background-color: initial;&quot;&gt;- thisIdx&amp;nbsp; &amp;nbsp; &amp;nbsp; &amp;nbsp; &amp;nbsp; &amp;nbsp; &amp;nbsp; (int)&lt;/span&gt;&lt;br&gt;&lt;/p&gt;&lt;p style=&quot;line-height: 60%;&quot;&gt;- parentIdx&amp;nbsp; &amp;nbsp; &amp;nbsp; &amp;nbsp; &amp;nbsp;(int)&lt;/p&gt;&lt;p style=&quot;line-height: 60%;&quot;&gt;&lt;span style=&quot;background-color: initial;&quot;&gt;- retIdx&amp;nbsp; &amp;nbsp; &amp;nbsp; &amp;nbsp; &amp;nbsp; &amp;nbsp; &amp;nbsp; &amp;nbsp;(int)&lt;/span&gt;&lt;/p&gt;&lt;p style=&quot;line-height: 60%;&quot;&gt;- frameBindings (array)&lt;span style=&quot;background-color: initial;&quot;&gt;&lt;br&gt;&lt;/span&gt;&lt;/p&gt;" style="text;html=1;strokeColor=#82b366;fillColor=#d5e8d4;spacing=5;spacingTop=-20;whiteSpace=wrap;overflow=hidden;rounded=0;" parent="MPshjHnfK2mcv_0NpmO8-31" vertex="1">
          <mxGeometry x="30" y="180" width="190" height="210" as="geometry" />
        </mxCell>
        <mxCell id="MPshjHnfK2mcv_0NpmO8-21" style="rounded=0;orthogonalLoop=1;jettySize=auto;html=1;fillColor=#d5e8d4;strokeColor=#82b366;dashed=1;endArrow=none;endFill=0;" parent="MPshjHnfK2mcv_0NpmO8-31" source="MPshjHnfK2mcv_0NpmO8-1" target="MPshjHnfK2mcv_0NpmO8-16" edge="1">
          <mxGeometry relative="1" as="geometry" />
        </mxCell>
        <mxCell id="MPshjHnfK2mcv_0NpmO8-26" value="" style="group" parent="MPshjHnfK2mcv_0NpmO8-31" vertex="1" connectable="0">
          <mxGeometry x="170" y="360" width="30" height="20" as="geometry" />
        </mxCell>
        <mxCell id="MPshjHnfK2mcv_0NpmO8-23" value="" style="rounded=0;whiteSpace=wrap;html=1;fillColor=#ffe6cc;strokeColor=#d79b00;" parent="MPshjHnfK2mcv_0NpmO8-26" vertex="1">
          <mxGeometry width="10" height="20" as="geometry" />
        </mxCell>
        <mxCell id="MPshjHnfK2mcv_0NpmO8-24" value="" style="rounded=0;whiteSpace=wrap;html=1;fillColor=#ffe6cc;strokeColor=#d79b00;" parent="MPshjHnfK2mcv_0NpmO8-26" vertex="1">
          <mxGeometry x="10" width="10" height="20" as="geometry" />
        </mxCell>
        <mxCell id="MPshjHnfK2mcv_0NpmO8-25" value="" style="rounded=0;whiteSpace=wrap;html=1;fillColor=#ffe6cc;strokeColor=#d79b00;" parent="MPshjHnfK2mcv_0NpmO8-26" vertex="1">
          <mxGeometry x="20" width="10" height="20" as="geometry" />
        </mxCell>
        <mxCell id="MPshjHnfK2mcv_0NpmO8-22" value="&lt;h1&gt;&lt;font style=&quot;font-size: 12px;&quot;&gt;bind&amp;nbsp;&lt;/font&gt;&lt;/h1&gt;&lt;p style=&quot;line-height: 60%;&quot;&gt;- symName&amp;nbsp; &amp;nbsp; &amp;nbsp; &amp;nbsp;(String)&lt;/p&gt;&lt;p style=&quot;line-height: 60%;&quot;&gt;- val&amp;nbsp; &amp;nbsp; &amp;nbsp; &amp;nbsp; &amp;nbsp; &amp;nbsp; &amp;nbsp; &amp;nbsp; &amp;nbsp; &amp;nbsp;(ref)&lt;/p&gt;&lt;p style=&quot;line-height: 60%;&quot;&gt;- coord&amp;nbsp; &amp;nbsp; &amp;nbsp; &amp;nbsp; &amp;nbsp; &amp;nbsp; &amp;nbsp; (ref)&lt;/p&gt;&lt;p style=&quot;line-height: 60%;&quot;&gt;- visibleAfterIdx (int)&lt;/p&gt;" style="text;html=1;strokeColor=#d79b00;fillColor=#ffe6cc;spacing=5;spacingTop=-20;whiteSpace=wrap;overflow=hidden;rounded=0;" parent="MPshjHnfK2mcv_0NpmO8-31" vertex="1">
          <mxGeometry x="70" y="410" width="150" height="130" as="geometry" />
        </mxCell>
        <mxCell id="MPshjHnfK2mcv_0NpmO8-29" style="rounded=0;orthogonalLoop=1;jettySize=auto;html=1;entryX=0.25;entryY=1;entryDx=0;entryDy=0;dashed=1;fillColor=#ffe6cc;strokeColor=#d79b00;endArrow=none;endFill=0;" parent="MPshjHnfK2mcv_0NpmO8-31" source="MPshjHnfK2mcv_0NpmO8-22" target="MPshjHnfK2mcv_0NpmO8-23" edge="1">
          <mxGeometry relative="1" as="geometry" />
        </mxCell>
        <mxCell id="yXxu-ckIG8VWti2M3FYv-17" value="" style="html=1;shadow=0;dashed=0;align=center;verticalAlign=middle;shape=mxgraph.arrows2.arrow;dy=0.6;dx=40;notch=0;" vertex="1" parent="MPshjHnfK2mcv_0NpmO8-31">
          <mxGeometry x="482.5" y="160" width="135" height="10" as="geometry" />
        </mxCell>
        <mxCell id="MPshjHnfK2mcv_0NpmO8-18" value="&lt;h1&gt;&lt;font style=&quot;font-size: 12px;&quot;&gt;expr-exec&amp;nbsp;&lt;/font&gt;&lt;/h1&gt;&lt;p style=&quot;line-height: 60%;&quot;&gt;- coord&amp;nbsp; &amp;nbsp; &amp;nbsp; (ref)&lt;/p&gt;&lt;p style=&quot;line-height: 60%;&quot;&gt;- exprVal&amp;nbsp; &amp;nbsp;(ref)&lt;/p&gt;&lt;p style=&quot;line-height: 60%;&quot;&gt;- fnCallIdx (int)&lt;/p&gt;&lt;p style=&quot;line-height: 60%;&quot;&gt;- thisIdx&amp;nbsp; &amp;nbsp; &amp;nbsp;(int)&lt;/p&gt;" style="text;html=1;strokeColor=#b85450;fillColor=#f8cecc;spacing=5;spacingTop=-20;whiteSpace=wrap;overflow=hidden;rounded=0;" parent="MPshjHnfK2mcv_0NpmO8-31" vertex="1">
          <mxGeometry x="510" y="430" width="130" height="130" as="geometry" />
        </mxCell>
        <mxCell id="MPshjHnfK2mcv_0NpmO8-19" style="rounded=0;orthogonalLoop=1;jettySize=auto;html=1;exitX=0.5;exitY=1;exitDx=0;exitDy=0;endArrow=none;endFill=0;dashed=1;fillColor=#f8cecc;strokeColor=#b85450;" parent="MPshjHnfK2mcv_0NpmO8-31" source="MPshjHnfK2mcv_0NpmO8-7" target="MPshjHnfK2mcv_0NpmO8-18" edge="1">
          <mxGeometry relative="1" as="geometry" />
        </mxCell>
      </root>
    </mxGraphModel>
  </diagram>
</mxfile>
